<svg xmlns="http://www.w3.org/2000/svg" viewBox="0 0 34 32" width="32" height="32">
  <!-- Dark background -->
  <rect width="34" height="32" fill="#111"/>
  <!-- Wheel dots -->
  <path fill="#fff" d="M23.679 31.938c-0.635 0.008-0.646-0.576-0.573-0.869l0.084-0.197h0.331l-0.111 0.197c-0.261 0.459 0.063 0.678 0.268 0.657 0.484-0.026 0.39-0.481 0.273-0.657l-0.163-0.155h0.394l0.063 0.155c0.21 0.65-0.291 0.85-0.568 0.869zM6.454 28.757c-0.611-0.12-0.498-0.694-0.365-0.965l0.122-0.175 0.318 0.067-0.147 0.17c-0.347 0.397-0.083 0.675 0.118 0.697 0.469 0.072 0.476-0.392 0.401-0.587l-0.123-0.185 0.378 0.080 0.027 0.165c0.064 0.678-0.459 0.773-0.728 0.735zM1.786 26.127c-0.518-0.295-0.241-0.774-0.038-0.976l0.165-0.119 0.268 0.157-0.186 0.107c-0.437 0.248-0.281 0.579-0.105 0.66 0.404 0.209 0.553-0.204 0.543-0.402l-0.056-0.203 0.319 0.187-0.025 0.156c-0.148 0.626-0.652 0.55-0.886 0.433zM28.928 31.99c-0.635 0.008-0.646-0.576-0.573-0.869l0.084-0.197h0.331l-0.111 0.197c-0.261 0.459 0.063 0.678 0.268 0.657 0.484-0.026 0.391-0.481 0.273-0.657l-0.163-0.155h0.394l0.063 0.155c0.21 0.65-0.291 0.85-0.568 0.869z"/>
  <!-- Skateboard + figure body -->
  <path fill="#fff" d="M30.096 30.676c1.227-0.633 1.338-1.516 1.24-1.878-0.034-0.526-0.648-0.478-0.951-0.388-0.348 0.070-0.839 0.091-1.040 0.093-0.232-0.041-1.923 0.005-1.918 0l0.384-0.45c0.538-0.029 1.401 0.040 1.766 0.078 0.323 0.024 0.648-0.022 0.951-0.134 1.060-0.232 1.306 0.438 1.298 0.802 0.092 0.952-0.665 1.721-1.056 1.986-0.265 0.203-0.931 0.298-1.229 0.321h-1.146l-4.704-0.031c-0.631-0.017-0.599 0-0.599 0-0.177 0-0.568-0.045-0.741-0.067-0.324-0.049-0.628-0.187-0.877-0.397s-0.433-0.485-0.531-0.793c-0.24-0.857 0.334-1.529 0.651-1.759 0.354-0.257 1.013-0.172 1.298-0.098 0.202 0.054 0.617 0.16 0.798 0.207 0.189 0.029 1.683-0.012 2.407-0.036l-0.237 0.424h-2.228c-0.198 0-0.464-0.090-0.573-0.134-1.005-0.501-1.487 0.129-1.603 0.507-0.429 1.13 0.89 1.671 1.603 1.8h3.594c0.706 0.012 2.59 0.035 3.442-0.053zM7.983 27.991c1.277-0.036 1.569-0.672 1.676-1.029 0.079-0.729-0.142-1.009-0.489-1.164-0.415-0.228-1.060-0.237-1.224-0.331-0.22-0.098-1.647-0.908-1.64-0.91 0.005-0.002 0.047-0.372 0.226-0.44 0.452 0.23 1.595 0.86 1.871 1.066 0.856 0.166 0.541 0.103 0.946 0.202 0.98 0.304 0.869 1.574 0.672 1.883-0.419 0.862-0.804 0.9-1.661 1.112-0.662 0.088-0.986-0.026-1.241-0.149l-1.013-0.503-1.918-1.102-0.977-0.569-0.484-0.274-0.436-0.285c-0.503-0.314-0.489-0.367-0.489-0.367-0.143-0.084-0.333-0.336-0.447-0.476-0.547-0.672-0.547-1.288-0.547-1.612 0.195-0.845 0.899-1.264 1.429-1.279 0.42-0.053 1.021 0.302 1.214 0.502 0.136 0.142 0.434 0.381 0.557 0.507 0.138 0.115 0.709 0.371 1.308 0.693l-0.163 0.445-1.388-0.817c-0.18-0.104-0.344-0.235-0.484-0.388-0.657-0.797-1.272-0.574-1.608-0.243-0.864 0.791-0.147 1.862 0.38 2.369l2.918 1.706c0.567 0.346 2.368 1.507 3.009 1.455z"/>
  <!-- Skater upper body + head -->
  <path fill="#fff" d="M14.735 24.613c0.152 0.15 0.475 0.675 0.547 1.573-0.028 0.219-0.158 0.677-0.457 0.755-0.119 0.024-0.472-0.093-0.931-0.755-0.167-0.209-0.54-0.815-0.704-1.573-0.061-0.281-0.022-0.845 0.626-0.854 0.96-0.281 3.035-0.933 3.657-1.293 0.471-0.267 1.49-0.908 1.797-1.335 0.576-0.728 1.823-2.37 2.201-3.119 0.447-0.876 1.397-2.693 1.623-2.954 0.352-0.666 1.145-2.223 1.497-3.13 0.296-0.809 0.71-2.788 0-4.237-0.435-1.091-1.855-3.017-4.062-1.986-0.747 0.414-2.196 1.597-2.029 3.021 0.105 0.597 0.101 1.79-0.757 1.79-0.331 0.072-0.967-0.184-0.861-1.79 0.107-0.609 0.568-2.065 1.555-3.021 0.361-0.329 1.284-1.059 2.092-1.345 1.090-0.454 3.671-1.003 5.282 0.429 0.363 0.255 1.224 1.193 1.771 2.902 0.026-0.616 0.339-1.984 1.382-2.535 0.549-0.41 1.91-0.961 2.969 0.119 0.394 0.404 0.919 1.596-0.131 3.14-0.373 0.497-1.463 1.423-2.837 1.154l-0.568-0.16c-0.019 0.066-0.047 0.219 0 0.31l0.883 1.392c0.333 0.571 1.173 1.751 1.871 1.904 0.181 0.052 0.716 0.14 1.414 0.078 0.664-0.059 2.091-0.101 2.486 0.197 0.305 0.126 0.91 0.568 0.893 1.329-0.005 0.3-0.148 0.894-0.678 0.869-0.224-0.031-0.728-0.219-0.951-0.724l-0.237-0.424c-0.024-0.026-0.089-0.076-0.152-0.067h-1.361c-0.627 0.076-2.057 0.182-2.759 0-0.404-0.050-1.328-0.344-1.782-1.117-0.181-0.217-0.599-0.8-0.83-1.392-0.525 0.745-1.513 2.809-1.256 5.106-0.010 0.738 0.502 2.615 2.633 4.221 0.442 0.378 1.338 1.276 1.393 1.847 0.157 0.171 0.043 1.28-1.676 4.35l-1.098 1.588c0.469-0.184 1.493-0.417 1.834 0.129 0.326 0.524 0.171 0.281 0.038 0.073 0.168 0.282 0.156 0.853-1.147 1.086-0.544 0.028-1.791 0.003-2.438-0.316-0.053-0.136-0.049-0.579 0.389-1.262 0.683-1.217 2.049-3.758 2.049-4.18 0.086-0.316 0.017-1.137-0.946-1.898-0.597-0.348-1.885-1.212-2.259-1.878-0.242-0.348-0.754-1.106-0.868-1.35-0.356 0.483-1.207 1.554-1.766 1.976-0.88 0.722-2.807 2.209-3.484 2.374-0.569 0.285-1.846 0.86-2.396 0.885-0.295 0.033-0.999 0.098-1.461 0.098z"/>
</svg>
